<?xml version="1.0" standalone="no"?>
<!DOCTYPE svg PUBLIC "-//W3C//DTD SVG 20010904//EN"
 "http://www.w3.org/TR/2001/REC-SVG-20010904/DTD/svg10.dtd">
<svg version="1.0" xmlns="http://www.w3.org/2000/svg"
 width="900.000000pt" height="580.000000pt" viewBox="-110 570 1200 55"
 preserveAspectRatio="xMidYMid meet">

<g transform="translate(0.000000,580.000000) scale(0.100000,-0.100000)"
fill="#000000" stroke="none">
<path d="M2656 3932 c-6 -10 30 -9 40 1 4 4 -2 7 -14 7 -11 0 -23 -4 -26 -8z"/>
<path d="M2465 3901 c-343 -123 -567 -417 -583 -766 -9 -210 35 -368 151 -539
107 -158 293 -289 487 -342 91 -25 338 -26 430 -1 115 30 261 110 332 180 35
34 64 69 66 77 2 8 9 22 16 30 8 8 11 21 9 28 -5 13 -44 17 -42 5 3 -21 -3
-31 -26 -41 -28 -13 -35 1 -7 17 9 6 14 11 11 11 -4 0 -27 -11 -50 -25 -24
-14 -46 -25 -49 -25 -3 0 -4 17 -3 37 2 54 2 53 11 50 4 -1 20 8 35 20 30 24
18 36 -22 21 -13 -5 -38 -7 -56 -6 -28 2 -34 6 -37 30 -3 15 -1 28 4 28 4 0 8
7 8 15 0 8 6 12 14 9 7 -3 16 3 20 13 3 10 12 37 20 60 15 47 35 72 54 65 6
-2 15 3 18 12 3 9 10 13 15 10 5 -3 6 2 3 10 -3 9 -1 16 5 16 6 0 11 5 11 11
0 5 -4 8 -9 5 -5 -4 -7 2 -4 12 2 11 -3 26 -11 35 -9 8 -16 23 -16 32 0 12 -5
15 -22 9 -28 -8 -38 -22 -38 -50 0 -23 -17 -34 -51 -34 -16 0 -18 -4 -10 -18
11 -20 -11 -58 -28 -47 -6 3 -11 1 -11 -6 0 -8 -4 -8 -15 1 -13 11 -14 10 -9
-4 4 -12 0 -16 -15 -16 -24 0 -25 4 -12 29 7 13 6 18 -4 18 -8 0 -12 -4 -9 -8
2 -5 -12 -7 -33 -5 -26 3 -41 -1 -50 -13 -9 -13 -14 -14 -24 -3 -11 10 -10 12
2 13 21 1 -43 28 -68 29 -13 0 -23 -5 -23 -11 0 -6 -9 -8 -22 -3 -21 6 -22 5
-8 -11 14 -17 13 -18 -15 -11 -37 9 -43 15 -27 25 9 5 5 14 -14 32 -18 16 -28
20 -31 12 -5 -15 -33 -18 -33 -4 0 5 6 12 13 14 7 3 5 6 -5 6 -32 2 -69 24
-64 38 3 8 1 11 -4 8 -6 -3 -10 -1 -10 4 0 6 -7 11 -15 11 -8 0 -15 -4 -15
-10 0 -5 -5 -10 -11 -10 -5 0 -7 5 -4 10 3 6 0 11 -7 11 -7 1 3 5 22 8 19 4
43 2 52 -3 24 -14 34 0 14 19 -9 9 -16 22 -16 28 0 7 7 3 15 -7 18 -24 30 -15
16 12 -6 11 -7 22 -3 26 3 4 0 11 -8 16 -10 6 -11 12 -2 22 15 19 4 58 -18 58
-11 0 -22 13 -30 33 -6 17 -16 39 -20 48 -5 9 -6 20 -3 23 10 10 43 7 43 -4 0
-5 -7 -7 -15 -4 -8 4 -15 1 -15 -5 0 -12 11 -14 33 -5 9 3 13 13 9 26 -4 16
-10 19 -33 14 -37 -7 -45 8 -19 34 11 11 15 20 9 20 -6 0 -8 7 -5 16 5 12 0
14 -23 11 -17 -3 -35 -8 -40 -12 -15 -9 -14 8 2 24 10 10 9 11 -5 6 -12 -5
-20 -1 -24 9 -3 9 -10 16 -16 16 -5 0 -7 -4 -4 -8 3 -4 -8 -13 -25 -19 -20 -8
-29 -8 -29 0 0 5 -2 8 -5 5 -11 -11 7 -37 22 -31 9 4 19 -1 25 -11 5 -9 13
-14 19 -11 12 8 6 -30 -8 -47 -7 -7 -24 -14 -40 -15 -15 -1 -22 1 -15 4 18 7
15 31 -7 54 l-18 20 -6 -21 c-3 -12 -13 -20 -25 -20 -19 0 -38 18 -91 88 -13
18 -30 32 -36 32 -7 0 -15 7 -19 15 -3 8 -1 15 5 15 6 0 9 6 6 13 -2 7 4 24
15 37 19 24 20 24 50 7 16 -9 34 -15 39 -11 5 3 9 -1 9 -10 0 -8 3 -22 7 -32
4 -10 2 -15 -3 -11 -5 3 -10 -3 -10 -14 0 -10 7 -19 16 -20 10 0 11 -2 2 -6
-19 -7 -4 -23 16 -16 14 5 15 4 6 -8 -6 -8 -14 -26 -18 -41 -5 -22 -3 -28 9
-28 12 0 15 6 10 21 -5 15 -4 19 5 14 7 -4 14 1 17 14 6 24 59 56 85 52 9 -1
19 7 23 18 3 11 15 23 26 26 10 4 19 10 19 15 0 5 14 11 30 15 33 7 34 21 4
75 -7 14 -16 33 -20 43 -3 9 -10 17 -15 17 -5 0 -9 6 -9 14 0 8 -5 18 -12 22
-8 5 -9 2 -5 -10 5 -12 3 -16 -5 -13 -7 2 -12 12 -10 22 3 17 -13 34 -31 35
-4 0 -12 -10 -17 -22 -5 -13 -9 -17 -9 -10 -1 17 -38 52 -56 52 -18 0 -20 -17
-4 -22 9 -3 9 -10 0 -26 -13 -24 -33 -30 -28 -9 1 6 -7 12 -18 12 -11 0 -21 8
-23 18 -2 9 2 17 8 17 15 0 8 32 -10 47 -19 15 -1 17 34 3 21 -8 26 -7 26 6 0
11 6 13 20 9 15 -5 20 -2 20 14 0 23 27 54 41 45 5 -3 14 7 19 21 8 22 13 25
24 16 10 -9 15 -8 20 5 3 8 6 18 6 20 0 8 -37 2 -85 -15z m-30 -230 c3 -5 2
-12 -3 -15 -5 -3 -9 1 -9 9 0 17 3 19 12 6z m-216 -58 c-8 -14 -9 -25 -2 -37
9 -16 11 -14 23 13 13 32 30 42 30 17 0 -21 -25 -64 -50 -86 -24 -21 -43 -19
-22 2 17 17 15 31 -3 25 -11 -5 -13 0 -8 26 3 18 13 39 22 48 21 21 26 17 10
-8z m131 -11 c0 -2 -6 -2 -14 1 -20 8 -27 -3 -16 -23 9 -16 7 -17 -15 -6 -21
9 -23 13 -10 22 9 7 15 16 14 20 -4 21 2 23 21 7 11 -10 20 -19 20 -21z m200
-257 c-7 -8 -16 -15 -21 -15 -5 0 -9 7 -9 15 0 9 9 15 21 15 18 0 19 -2 9 -15z
m-20 -35 c0 -5 -5 -10 -11 -10 -5 0 -7 5 -4 10 3 6 8 10 11 10 2 0 4 -4 4 -10z
m44 -6 c7 -19 -2 -37 -15 -29 -12 8 -12 45 0 45 5 0 12 -7 15 -16z m-209 -94
c3 -5 2 -10 -4 -10 -5 0 -13 5 -16 10 -3 6 -2 10 4 10 5 0 13 -4 16 -10z m865
-331 c0 -5 -4 -9 -10 -9 -18 0 -25 -2 -45 -12 -17 -9 -17 -7 4 15 21 24 51 27
51 6z m-195 -49 c3 -5 2 -10 -4 -10 -5 0 -13 5 -16 10 -3 6 -2 10 4 10 5 0 13
-4 16 -10z m205 -340 c0 -5 -2 -10 -4 -10 -3 0 -8 5 -11 10 -3 6 -1 10 4 10 6
0 11 -4 11 -10z m-20 -22 c0 -4 -4 -8 -9 -8 -6 0 -12 4 -15 8 -3 5 1 9 9 9 8
0 15 -4 15 -9z"/>
<path d="M3060 3730 c0 -12 26 -30 33 -23 4 3 7 -3 7 -14 0 -20 24 -33 47 -26
18 6 -34 60 -63 66 -13 2 -24 1 -24 -3z"/>
<path d="M3330 3671 c0 -5 7 -12 16 -15 14 -5 15 -4 4 9 -14 17 -20 19 -20 6z"/>
<path d="M3765 3672 c-3 -3 -5 -79 -5 -169 l0 -163 83 0 c148 1 212 51 212
170 0 115 -54 160 -201 164 -46 2 -86 1 -89 -2z m197 -89 c38 -36 40 -107 4
-146 -24 -26 -75 -41 -117 -35 -22 3 -23 7 -25 102 -2 55 0 104 3 109 3 5 28
7 56 4 36 -5 59 -14 79 -34z"/>
<path d="M3158 3594 c26 -18 29 -39 6 -48 -11 -4 -15 -14 -12 -31 3 -14 0 -25
-6 -26 -6 0 -2 -4 9 -8 27 -12 38 -3 32 26 -3 17 -1 23 9 19 16 -6 19 -1 29
43 7 32 6 33 -18 27 -14 -3 -29 -2 -32 4 -3 5 -14 10 -23 10 -13 0 -12 -3 6
-16z"/>
<path d="M4085 3577 c-3 -7 -4 -60 -3 -118 l3 -104 30 0 30 0 0 115 0 115 -28
3 c-16 2 -29 -2 -32 -11z"/>
<path d="M4222 3580 c-59 -25 -45 -104 23 -130 53 -20 67 -29 60 -41 -9 -13
-62 -11 -85 4 -17 10 -22 9 -30 -3 -18 -28 -10 -39 38 -53 78 -23 132 3 132
64 0 35 -18 53 -75 75 -25 9 -44 22 -42 28 4 12 53 13 79 2 19 -9 36 30 20 46
-14 14 -93 20 -120 8z"/>
<path d="M4438 3574 c-73 -39 -76 -159 -6 -208 31 -22 110 -21 139 2 29 24 20
58 -14 47 -12 -4 -34 -9 -49 -12 -56 -11 -91 74 -48 117 24 24 48 25 78 4 18
-12 26 -13 37 -4 56 47 -64 94 -137 54z"/>
<path d="M4656 3569 c-31 -24 -56 -69 -56 -99 0 -36 31 -90 61 -105 15 -8 49
-15 75 -15 39 0 51 5 80 34 33 33 39 52 34 106 -3 37 -17 59 -53 80 -43 27
-107 26 -141 -1z m112 -49 c44 -41 19 -120 -38 -120 -31 0 -56 23 -65 62 -5
21 -1 33 19 52 30 31 55 33 84 6z"/>
<path d="M4850 3584 c0 -4 21 -58 46 -121 43 -104 49 -113 73 -113 25 0 30 9
68 103 23 56 45 110 49 120 6 16 2 18 -26 15 -35 -3 -32 3 -86 -148 -3 -8 -18
20 -33 65 -26 76 -30 80 -59 83 -18 2 -32 0 -32 -4z"/>
<path d="M5124 3556 c-30 -30 -34 -40 -34 -86 0 -46 4 -56 34 -86 30 -30 40
-34 84 -34 34 0 57 6 73 19 22 18 23 21 8 36 -13 13 -21 15 -37 6 -29 -16 -68
-14 -86 5 -28 27 -18 33 67 36 81 3 82 3 79 28 -7 72 -48 110 -118 110 -28 0
-44 -8 -70 -34z m114 -28 c23 -23 12 -33 -38 -33 -53 0 -59 4 -34 29 18 19 55
21 72 4z"/>
<path d="M5348 3583 c-2 -5 -3 -57 -3 -118 l1 -110 29 0 c30 0 30 0 33 67 3
59 6 70 29 88 14 11 32 20 39 20 17 0 18 14 4 41 -10 18 -13 18 -39 4 -26 -13
-30 -13 -35 0 -5 15 -52 21 -58 8z"/>
<path d="M5509 3585 c-4 -3 13 -56 37 -117 39 -104 41 -114 28 -140 -9 -17
-23 -28 -41 -30 -20 -2 -29 -9 -31 -25 -3 -21 1 -23 41 -23 29 0 49 6 59 18
16 17 128 290 128 311 0 6 -12 11 -28 11 -25 0 -30 -6 -56 -81 l-29 -80 -26
78 c-23 68 -29 78 -51 81 -14 2 -28 0 -31 -3z"/>
<path d="M6090 3083 c0 -252 4 -463 8 -469 4 -6 15 -10 26 -8 10 1 29 -1 41
-6 49 -19 50 -12 53 482 l3 458 -65 0 -66 0 0 -457z"/>
<path d="M6940 3338 c1 -112 1 -209 1 -215 -1 -7 -21 3 -47 22 -85 65 -100 70
-209 70 -89 0 -106 -3 -157 -28 -74 -37 -141 -105 -181 -187 -30 -61 -32 -72
-32 -170 0 -88 4 -113 23 -155 23 -50 62 -96 62 -73 0 6 7 3 15 -8 8 -10 15
-14 14 -9 -3 22 2 25 22 14 12 -6 19 -7 15 -1 -3 5 1 12 9 16 8 3 17 0 21 -6
5 -7 2 -8 -6 -3 -8 5 -11 4 -6 -3 4 -6 13 -9 22 -5 13 5 13 7 0 22 -8 9 -27
43 -41 74 -63 144 -11 316 116 380 226 115 445 -145 328 -389 -16 -35 -34 -64
-38 -64 -4 0 -8 -7 -8 -15 0 -11 3 -12 14 -3 11 9 17 8 24 -3 5 -8 9 -9 9 -4
0 6 9 11 21 12 16 2 19 -2 14 -15 -5 -14 -4 -15 6 -4 7 6 37 12 66 12 l53 0 0
470 0 470 -66 0 -65 0 1 -202z"/>
<path d="M3265 3474 c-8 -9 -19 -13 -23 -10 -5 3 -7 -5 -6 -17 1 -12 3 -25 3
-29 1 -5 6 -8 12 -8 6 0 8 8 5 18 -6 16 -5 16 7 0 17 -21 71 -18 75 5 2 10 9
14 19 10 14 -5 14 -3 -1 19 -19 29 -67 35 -91 12z"/>
<path d="M2820 3441 c0 -5 5 -13 10 -16 6 -3 10 -2 10 4 0 5 -4 13 -10 16 -5
3 -10 2 -10 -4z"/>
<path d="M5698 3333 c5 -25 6 -25 13 -8 6 17 8 17 8 3 1 -12 9 -18 26 -18 20
0 25 5 25 25 0 26 -15 34 -23 13 -4 -10 -6 -10 -6 0 -1 6 -12 12 -25 12 -20 0
-22 -4 -18 -27z"/>
<path d="M2668 3213 c13 -18 28 -33 32 -33 17 0 20 -33 4 -45 -17 -12 -11 -40
7 -29 5 3 7 9 4 14 -7 12 22 33 36 24 8 -5 9 -3 3 7 -5 8 -9 19 -9 24 -1 6 -6
9 -11 8 -6 -1 -16 13 -22 31 -10 27 -17 33 -41 32 l-28 -1 25 -32z"/>
<path d="M5045 3200 c-185 -74 -290 -279 -240 -468 10 -37 23 -73 29 -81 5 -7
15 -23 21 -35 8 -16 20 -21 50 -22 22 0 50 3 61 7 13 4 27 3 35 -4 12 -11 1 9
-35 66 -60 92 -48 262 25 350 95 116 253 123 356 15 53 -55 77 -121 77 -213 0
-67 -4 -88 -26 -131 -15 -27 -34 -56 -42 -63 -9 -8 -16 -18 -16 -24 0 -6 7 -2
16 9 14 17 15 17 10 1 -4 -12 -2 -16 6 -11 7 5 37 8 68 8 l55 1 30 60 c27 54
30 69 30 160 0 92 -3 106 -31 165 -44 91 -102 153 -182 192 -58 29 -78 33
-157 35 -71 2 -101 -1 -140 -17z"/>
<path d="M5880 3199 c-25 -11 -57 -32 -72 -46 l-28 -27 0 37 0 37 -62 0 -63 0
0 -223 c0 -122 1 -257 3 -299 l2 -78 60 0 60 0 1 128 c2 214 9 251 57 301 36
38 114 71 167 71 18 0 21 6 23 60 l2 60 -53 0 c-30 0 -70 -9 -97 -21z"/>
<path d="M4210 3170 c-6 -19 -16 -53 -22 -75 -6 -22 -17 -58 -23 -80 -29 -90
-74 -254 -86 -308 -15 -70 -25 -79 -33 -29 -4 20 -34 132 -68 247 -33 116 -64
225 -70 243 -9 32 -9 32 -73 32 -39 0 -65 -4 -65 -11 0 -14 60 -216 121 -410
37 -118 55 -161 75 -180 15 -13 24 -18 20 -11 -5 8 2 16 19 22 33 13 44 13 25
0 -13 -8 -12 -10 3 -10 9 0 17 5 17 12 0 6 12 1 27 -13 14 -13 23 -18 19 -11
-6 9 -1 11 17 8 13 -2 28 -1 33 2 19 14 59 128 108 311 14 51 27 95 29 97 2 2
14 -37 27 -88 13 -50 40 -143 60 -207 l37 -116 39 4 c21 2 48 5 59 6 11 1 30
-2 43 -6 13 -5 22 -5 22 1 0 6 4 10 10 10 5 0 7 -7 3 -16 -4 -10 3 -7 19 8 16
14 38 58 56 113 37 110 144 476 140 480 -2 2 -30 5 -63 6 l-60 3 -13 -40 c-22
-62 -119 -405 -133 -468 -12 -57 -24 -63 -32 -16 -8 42 -37 150 -69 255 -16
55 -39 134 -50 175 -11 41 -23 79 -28 83 -4 5 -35 9 -69 10 l-61 2 -10 -35z"/>
<path d="M3294 3133 c5 -15 3 -23 -5 -23 -7 0 -9 -3 -6 -7 4 -3 -2 -17 -14
-29 -21 -23 -13 -39 14 -28 9 3 13 12 10 21 -4 10 -2 14 4 10 13 -8 11 59 -2
71 -4 4 -4 -3 -1 -15z"/>
<path d="M3405 3127 c-4 -10 -3 -23 4 -30 16 -16 26 0 14 25 -10 21 -11 22
-18 5z"/>
<path d="M2725 3081 c2 -16 25 -23 25 -8 0 4 0 11 0 15 0 5 -6 9 -14 9 -7 0
-13 -7 -11 -16z"/>
<path d="M3396 3045 c-3 -8 -1 -15 4 -15 6 0 10 7 10 15 0 8 -2 15 -4 15 -2 0
-6 -7 -10 -15z"/>
<path d="M3426 3011 c-3 -5 1 -11 9 -15 9 -3 15 0 15 9 0 16 -16 20 -24 6z"/>
<path d="M3460 3001 c0 -6 4 -13 10 -16 6 -3 7 1 4 9 -7 18 -14 21 -14 7z"/>
<path d="M3341 2984 c0 -11 3 -14 6 -6 3 7 2 16 -1 19 -3 4 -6 -2 -5 -13z"/>
<path d="M3330 2926 c0 -9 5 -16 10 -16 6 0 10 4 10 9 0 6 -4 13 -10 16 -5 3
-10 -1 -10 -9z"/>
<path d="M3030 2904 c0 -8 5 -12 10 -9 6 4 8 11 5 16 -9 14 -15 11 -15 -7z"/>
<path d="M2968 2893 c7 -3 16 -2 19 1 4 3 -2 6 -13 5 -11 0 -14 -3 -6 -6z"/>
<path d="M3345 2819 c-6 -19 0 -38 9 -28 10 12 16 49 7 49 -5 0 -13 -9 -16
-21z"/>
<path d="M3435 2651 c-3 -5 -1 -12 5 -16 5 -3 10 1 10 9 0 18 -6 21 -15 7z"/>
<path d="M3297 2633 c-11 -11 -8 -40 6 -51 8 -7 16 -6 25 4 10 11 10 14 -2 14
-9 0 -12 7 -9 20 5 19 -7 27 -20 13z"/>
</g>
</svg>
