<?xml version="1.0" standalone="no"?>
<!DOCTYPE svg PUBLIC "-//W3C//DTD SVG 20010904//EN"
 "http://www.w3.org/TR/2001/REC-SVG-20010904/DTD/svg10.dtd">
<svg version="1.0" xmlns="http://www.w3.org/2000/svg"
 width="500" height="433.000000pt" viewBox="0 0 859.000000 433.000000"
 preserveAspectRatio="xMidYMid meet">
<metadata>
Created by potrace 1.16, written by Peter Selinger 2001-2019
</metadata>
<g transform="translate(0.000000,433.000000) scale(0.100000,-0.100000)"
fill="#000000" stroke="none">
<path d="M0 2165 l0 -2165 4295 0 4295 0 0 2165 0 2165 -4295 0 -4295 0 0
-2165z m2285 995 c408 -112 706 -419 801 -825 28 -120 26 -368 -4 -488 -127
-506 -556 -847 -1067 -847 -530 0 -974 366 -1081 890 -23 116 -15 370 16 483
53 197 143 351 289 498 152 151 312 242 516 293 94 23 110 24 285 21 133 -2
180 -7 245 -25z m1453 -582 c67 -17 138 -87 158 -156 41 -139 -23 -286 -149
-346 -56 -26 -76 -28 -239 -27 -87 1 -108 4 -108 15 0 8 9 18 20 21 49 15 50
23 50 251 l0 215 -30 6 c-16 3 -30 12 -30 19 0 10 26 14 108 16 121 4 159 2
220 -14z m3045 3 c-3 -11 -15 -22 -28 -25 -12 -3 -25 -12 -28 -20 -3 -7 -9
-104 -13 -215 -8 -220 -5 -231 47 -231 21 0 29 -5 29 -17 0 -16 -12 -18 -105
-19 -59 -1 -105 2 -105 8 0 5 14 17 30 26 17 9 33 26 36 37 2 11 3 112 2 225
l-3 205 -27 3 c-16 2 -28 9 -28 17 0 11 20 15 83 18 45 1 89 4 99 5 11 1 15
-4 11 -17z m-2334 -141 c23 0 24 -2 18 -52 -7 -60 -29 -83 -38 -39 -8 40 -15
48 -49 54 -61 13 -106 -28 -78 -72 7 -11 34 -32 61 -47 80 -43 117 -81 117
-119 0 -68 -73 -118 -167 -117 -75 2 -83 8 -83 57 0 24 3 50 6 59 10 25 34 19
34 -8 0 -40 31 -68 77 -70 47 -1 73 17 73 50 0 24 -29 49 -121 104 -55 33 -75
77 -56 123 8 17 22 38 31 46 22 19 106 41 131 36 11 -3 31 -5 44 -5z m376 -5
c27 -6 28 -13 9 -102 -6 -32 -34 -30 -34 2 0 36 -33 65 -76 65 -70 0 -116 -82
-99 -180 16 -95 81 -137 169 -108 37 12 46 13 50 2 8 -21 -78 -66 -124 -66
-64 1 -126 44 -149 105 -18 48 -13 136 10 185 24 49 81 92 137 102 36 7 53 6
107 -5z m379 -21 c98 -72 84 -266 -26 -337 -78 -51 -185 -33 -232 38 -41 62
-37 178 9 247 53 81 174 106 249 52z m773 10 c33 -21 44 -49 41 -102 l-3 -47
-122 -3 -122 -3 6 -37 c17 -107 88 -153 187 -119 38 13 45 13 50 1 7 -19 -88
-66 -134 -66 -144 2 -215 171 -129 306 51 82 156 114 226 70z m-1870 -6 c-10
-40 -20 -274 -13 -302 5 -19 13 -26 31 -26 18 0 25 -5 25 -20 0 -18 -7 -20
-85 -20 -47 0 -85 2 -85 5 0 2 11 15 25 28 25 23 26 25 23 163 -3 136 -4 139
-25 142 -38 6 -26 30 20 40 74 17 90 15 84 -10z m1363 7 c0 -8 -9 -15 -20 -15
-11 0 -23 -7 -26 -15 -6 -13 48 -223 64 -252 9 -15 102 201 102 236 0 20 -18
31 -51 31 -12 0 -16 5 -13 15 5 11 24 15 80 15 80 0 89 -8 54 -45 -12 -12 -50
-91 -85 -175 -36 -85 -68 -157 -72 -161 -5 -4 -16 -9 -27 -11 -16 -3 -25 19
-65 142 -61 190 -69 210 -92 210 -12 0 -19 7 -19 20 0 18 7 20 85 20 69 0 85
-3 85 -15z m744 -25 c-8 -46 0 -50 28 -15 23 30 68 55 99 55 21 0 21 -3 15
-57 -8 -66 -27 -88 -39 -43 -9 37 -35 39 -74 6 -27 -23 -28 -29 -31 -125 -4
-112 3 -131 48 -131 23 0 27 -4 23 -20 -5 -18 -14 -20 -89 -20 -90 0 -103 9
-64 43 19 16 20 27 18 155 -3 134 -4 137 -25 140 -32 5 -29 30 5 38 15 3 32 7
37 9 6 2 20 4 33 4 20 1 22 -2 16 -39z m936 18 c48 -33 70 -81 70 -155 0 -130
-73 -213 -188 -213 -63 0 -109 30 -139 90 -51 101 -6 242 92 286 49 22 127 18
165 -8z m-1640 -578 c0 -47 11 -63 25 -40 9 14 58 13 73 -2 7 -7 12 -39 12
-73 0 -34 5 -66 12 -73 9 -9 4 -12 -26 -12 -32 0 -36 2 -27 14 7 9 11 38 9 73
-3 52 -5 58 -26 61 -38 6 -52 -15 -52 -74 0 -40 4 -56 18 -63 13 -8 7 -10 -28
-10 -25 0 -39 3 -32 6 15 6 18 223 2 223 -5 0 -10 5 -10 10 0 6 11 10 25 10
23 0 25 -3 25 -50z m-1801 -56 c44 -57 11 -144 -56 -146 -71 -2 -112 66 -79
130 18 35 28 40 78 41 28 1 41 -5 57 -25z"/>
<path d="M1834 3130 c-293 -53 -569 -244 -720 -500 -101 -172 -144 -327 -144
-525 -1 -298 105 -554 314 -758 451 -441 1187 -383 1565 123 150 201 219 424
208 670 -21 463 -335 851 -785 972 -87 23 -348 34 -438 18z m191 -445 c165
-43 306 -180 356 -348 39 -127 15 -312 -55 -417 l-24 -37 174 -174 173 -173
-21 -23 -22 -24 -173 173 -172 172 -28 -26 c-147 -138 -404 -170 -583 -72
-115 63 -213 181 -250 302 -40 130 -19 301 51 418 64 107 198 205 315 233 62
14 195 12 259 -4z"/>
<path d="M1932 2438 c-12 -62 -31 -169 -43 -238 -12 -69 -24 -128 -28 -132 -4
-4 -24 60 -46 142 -21 82 -41 147 -44 144 -3 -3 -17 -51 -32 -107 l-25 -102
-122 -3 c-100 -2 -122 -5 -122 -18 0 -12 20 -14 133 -12 l132 3 20 75 19 75
13 -45 c6 -25 26 -99 44 -164 24 -87 35 -114 40 -100 4 10 25 116 46 234 l37
215 42 -285 c22 -157 44 -278 47 -270 3 8 16 53 27 100 12 47 26 102 31 123
l10 37 99 0 c83 0 100 3 100 15 0 13 -17 15 -112 13 l-112 -3 -22 -85 c-12
-47 -23 -80 -23 -75 -5 52 -81 569 -84 572 -3 2 -14 -47 -25 -109z"/>
<path d="M3552 2546 c-5 -6 -12 -102 -16 -213 -7 -195 -6 -203 13 -222 17 -17
34 -21 82 -21 134 0 200 78 200 235 0 113 -54 190 -150 214 -65 16 -120 19
-129 7z"/>
<path d="M5025 2376 c-64 -65 -53 -224 20 -272 29 -19 90 -21 111 -3 43 36 59
153 30 223 -30 73 -113 100 -161 52z"/>
<path d="M6987 2389 c-53 -31 -68 -164 -26 -241 43 -76 122 -84 172 -16 43 58
30 189 -25 240 -32 30 -86 37 -121 17z"/>
</g>
</svg>
