<?xml version="1.0" standalone="no"?>
<!DOCTYPE svg PUBLIC "-//W3C//DTD SVG 20010904//EN"
 "http://www.w3.org/TR/2001/REC-SVG-20010904/DTD/svg10.dtd">
<svg version="1.0" xmlns="http://www.w3.org/2000/svg"
 width="700" height="550" viewBox="0 110 700 850"
 preserveAspectRatio="xMidYMid meet">
<metadata>
Created by potrace 1.16, written by Peter Selinger 2001-2019
</metadata>
<g transform="translate(0.000000,360.000000) scale(0.100000,-0.100000)"
fill="#000000" stroke="none">
<path d="M5748 2353 l-3 -78 -45 -3 c-44 -2 -155 -18 -196 -28 -15 -4 -23 2
-32 20 -6 14 -23 44 -37 66 -22 34 -29 39 -41 29 -15 -12 -12 -18 43 -106 14
-20 12 -22 -43 -38 -31 -9 -98 -34 -148 -56 -50 -22 -96 -43 -103 -45 -6 -3
-31 21 -55 54 -24 32 -49 57 -55 55 -21 -7 -15 -23 27 -79 l39 -52 -47 -27
c-26 -15 -75 -46 -110 -68 l-63 -40 -42 48 c-35 40 -44 45 -54 33 -10 -11 -4
-23 27 -59 l38 -45 -66 -52 c-37 -28 -94 -76 -127 -106 l-60 -54 45 -47 c25
-25 80 -74 123 -107 42 -34 77 -66 77 -71 0 -5 -16 -27 -35 -49 -35 -38 -38
-58 -10 -58 7 0 29 19 49 43 l35 42 28 -18 c15 -10 63 -38 106 -64 71 -42 90
-64 69 -77 -5 -3 -21 -23 -37 -45 -23 -34 -25 -43 -15 -56 11 -13 19 -7 56 45
25 33 46 60 48 60 2 0 33 -13 68 -29 53 -24 112 -45 235 -86 9 -3 2 -23 -22
-61 -19 -32 -32 -61 -29 -66 13 -20 33 -4 65 53 33 59 35 60 69 55 19 -4 79
-11 133 -17 l97 -12 0 -78 c0 -72 2 -79 20 -79 18 0 20 7 20 79 l0 78 98 12
c53 7 111 14 128 17 30 6 34 3 71 -59 30 -51 42 -64 53 -56 13 7 10 19 -18 70
-19 33 -32 62 -30 63 1 1 30 10 63 20 33 10 101 36 150 57 50 22 93 39 96 39
3 0 23 -25 45 -55 37 -52 56 -65 68 -46 3 4 -13 34 -35 65 -23 32 -39 59 -38
60 25 20 204 126 213 125 6 0 27 -20 48 -44 30 -37 38 -42 48 -30 10 12 5 23
-24 57 -20 23 -36 44 -36 48 0 3 21 22 48 41 83 63 192 162 192 175 0 13 -134
134 -202 183 -21 14 -38 29 -38 32 0 3 16 24 36 47 30 36 34 45 23 58 -10 13
-18 8 -54 -32 l-41 -47 -98 61 c-53 33 -102 62 -109 65 -7 2 2 22 24 53 50 70
50 71 35 83 -11 9 -21 1 -52 -41 -20 -29 -40 -56 -44 -61 -3 -4 -46 10 -96 32
-49 21 -116 47 -149 57 -33 10 -64 21 -68 25 -5 3 5 29 22 56 34 56 37 68 18
76 -9 3 -27 -18 -51 -59 -21 -35 -39 -64 -39 -64 -1 0 -37 7 -80 15 -43 8
-101 15 -128 15 l-49 0 0 80 c0 73 -2 80 -20 80 -17 0 -19 -8 -22 -77z m120
-188 c188 -44 320 -187 354 -383 23 -135 -22 -277 -120 -379 -62 -64 -113 -97
-197 -124 -294 -95 -593 121 -597 432 -4 297 272 522 560 454z m589 -383 l36
-19 -40 -16 c-27 -11 -44 -25 -53 -46 -16 -40 -26 -39 -39 2 -8 23 -23 39 -49
52 l-37 18 41 17 c33 15 45 26 55 57 l12 38 19 -42 c13 -29 30 -49 55 -61z
m-1288 49 c8 -19 25 -34 49 -43 l37 -14 -33 -18 c-20 -10 -39 -31 -48 -52 -8
-19 -18 -34 -22 -34 -5 0 -16 15 -25 34 -11 24 -27 38 -53 46 l-38 13 38 19
c24 12 43 32 52 54 16 39 26 38 43 -5z m-229 -61 c8 -19 24 -34 46 -42 42 -15
43 -22 3 -38 -21 -9 -37 -26 -49 -54 l-17 -41 -18 37 c-13 27 -30 42 -59 54
l-41 16 37 19 c25 13 43 32 53 55 16 40 27 38 45 -6z m1699 5 c8 -24 24 -41
49 -54 l37 -19 -37 -15 c-24 -10 -44 -28 -57 -54 l-20 -38 -16 41 c-12 30 -27
46 -53 58 l-36 17 40 18 c27 12 45 29 53 50 17 40 24 39 40 -4z m-1461 -194
c23 -8 42 -18 42 -22 0 -3 -18 -14 -41 -24 -33 -15 -46 -29 -64 -70 l-22 -50
-24 47 c-18 39 -31 51 -66 64 -24 9 -43 20 -43 23 0 4 20 17 45 29 25 12 45
26 45 31 0 5 7 26 16 47 l16 38 26 -49 c22 -39 36 -52 70 -64z m1296 56 c13
-35 25 -48 56 -62 22 -10 40 -21 40 -25 0 -4 -19 -15 -43 -24 -35 -13 -47 -25
-66 -64 l-23 -47 -20 51 c-17 43 -26 54 -66 73 l-47 23 45 18 c36 13 50 26 70
63 13 25 27 44 31 42 3 -3 14 -24 23 -48z"/>
<path d="M5710 2132 c-14 -1 -46 -10 -71 -18 l-47 -15 -10 -72 c-6 -39 -9 -73
-7 -75 2 -2 42 -7 89 -9 l86 -6 0 96 c0 53 -3 97 -7 99 -5 2 -19 2 -33 0z"/>
<path d="M5790 2038 l0 -101 81 6 c44 3 83 8 86 11 3 3 -1 38 -8 77 -13 69
-15 73 -49 84 -19 7 -52 15 -72 18 l-38 6 0 -101z"/>
<path d="M5380 1878 c-13 -29 -23 -68 -24 -87 -1 -35 -1 -35 59 -47 110 -24
105 -27 105 76 0 99 3 95 -71 105 l-46 6 -23 -53z"/>
<path d="M6063 1921 c-24 -4 -45 -10 -48 -13 -4 -3 -3 -45 1 -92 l7 -87 41 6
c111 17 111 17 109 63 -2 50 -37 132 -55 131 -7 -1 -32 -5 -55 -8z"/>
<path d="M5566 1895 c-3 -9 -6 -52 -6 -94 l0 -78 68 -6 c37 -4 79 -7 95 -7
l27 0 0 95 0 95 -67 0 c-38 0 -78 3 -89 6 -14 4 -23 0 -28 -11z"/>
<path d="M5868 1903 l-78 -4 0 -95 0 -96 88 7 c48 4 90 10 93 14 11 12 -3 181
-15 179 -6 -1 -46 -4 -88 -5z"/>
<path d="M5350 1677 c0 -34 23 -122 38 -145 8 -11 130 -39 135 -31 2 2 0 44
-3 94 l-5 90 -65 12 c-98 18 -100 18 -100 -20z"/>
<path d="M6084 1697 l-62 -9 -6 -52 c-3 -28 -6 -70 -6 -94 l0 -43 48 7 c26 4
56 10 67 14 22 8 49 75 60 148 8 48 10 47 -101 29z"/>
<path d="M5560 1624 c0 -32 3 -76 6 -96 l7 -38 88 0 89 0 0 90 0 90 -34 0
c-18 0 -61 3 -95 6 l-61 7 0 -59z"/>
<path d="M5853 1673 l-63 -4 0 -89 0 -90 85 0 c60 0 87 4 90 13 2 6 5 49 7 95
l3 82 -30 -2 c-16 -1 -58 -3 -92 -5z"/>
<path d="M5581 1418 c2 -67 12 -82 64 -100 28 -9 62 -17 78 -18 27 0 27 0 27
69 l0 68 -52 7 c-29 3 -68 6 -85 6 -31 0 -33 -2 -32 -32z"/>
<path d="M5823 1443 l-33 -4 0 -70 c0 -66 1 -69 23 -69 13 0 46 7 74 15 49 15
52 17 58 58 3 23 9 50 11 60 5 15 -2 17 -48 15 -29 0 -68 -3 -85 -5z"/>
<path d="M620 1949 l0 -381 143 4 c158 4 195 15 222 68 23 44 22 577 -1 621
-27 53 -79 69 -231 69 l-133 0 0 -381z m296 287 c11 -16 14 -72 14 -283 l0
-264 -25 -24 c-22 -23 -32 -25 -115 -25 l-90 0 0 311 0 311 101 -4 c86 -2 103
-6 115 -22z"/>
<path d="M3890 1950 l0 -380 40 0 40 0 0 380 0 380 -40 0 -40 0 0 -380z"/>
<path d="M1110 1830 l0 -260 35 0 35 0 0 260 0 260 -35 0 -35 0 0 -260z"/>
<path d="M1343 2080 c-32 -13 -53 -51 -60 -107 -12 -105 25 -148 152 -176 80
-18 105 -41 105 -94 0 -23 -8 -42 -26 -60 -23 -23 -31 -25 -85 -21 -33 2 -64
9 -71 16 -6 6 -13 34 -16 61 -4 48 -6 51 -33 51 -28 0 -29 -2 -29 -44 0 -104
40 -140 155 -141 83 0 131 18 150 56 18 34 19 135 2 168 -16 31 -68 58 -142
72 -81 16 -95 30 -95 94 0 66 13 77 90 77 76 0 90 -11 90 -73 l0 -49 36 0 37
0 -6 61 c-4 49 -11 67 -31 88 -24 24 -35 26 -114 28 -48 2 -97 -1 -109 -7z"/>
<path d="M1742 2075 c-56 -24 -64 -61 -60 -267 l3 -180 32 -28 c40 -36 107
-47 183 -32 69 15 92 38 99 99 9 70 5 83 -30 83 -28 0 -29 -2 -29 -45 0 -67
-25 -88 -100 -83 -91 7 -90 4 -90 202 0 210 -1 208 95 208 81 -1 95 -12 95
-79 0 -41 1 -43 30 -43 30 0 30 0 30 56 0 66 -10 89 -50 109 -37 19 -163 19
-208 0z"/>
<path d="M2155 2081 c-42 -17 -57 -48 -67 -133 -12 -102 -2 -282 18 -325 20
-42 63 -58 150 -57 136 1 154 32 154 264 0 181 -9 219 -59 244 -32 17 -160 21
-196 7z m175 -68 c12 -11 15 -46 15 -184 0 -167 0 -171 -24 -190 -26 -22 -95
-26 -135 -8 -31 15 -36 41 -36 208 0 153 9 182 55 192 41 9 107 -1 125 -18z"/>
<path d="M2480 2073 c0 -10 20 -124 45 -253 25 -129 45 -238 45 -242 0 -5 33
-8 73 -8 l72 0 49 238 c26 130 50 247 53 260 5 20 1 22 -31 22 -41 0 -35 17
-71 -190 -47 -273 -46 -270 -71 -270 -16 0 -24 7 -28 28 -18 90 -39 212 -54
312 l-18 115 -32 3 c-26 3 -32 0 -32 -15z"/>
<path d="M2942 2075 c-56 -24 -64 -60 -60 -267 l3 -180 31 -28 c38 -33 94 -45
170 -35 72 9 103 36 115 100 12 65 5 85 -32 85 -28 0 -29 -2 -29 -45 0 -67
-25 -88 -100 -83 -83 6 -90 15 -90 109 l0 79 124 0 124 0 7 50 c7 51 -1 137
-16 177 -4 12 -22 29 -38 38 -38 19 -164 20 -209 0z m150 -45 c34 0 48 -29 48
-96 l0 -64 -95 0 -95 0 0 63 c0 35 6 70 13 79 13 17 58 28 92 22 11 -2 28 -4
37 -4z"/>
<path d="M3300 1830 l0 -260 30 0 30 0 0 208 0 209 25 23 c32 30 91 33 111 5
8 -10 14 -38 14 -62 0 -41 1 -43 29 -43 26 0 30 4 33 33 5 54 -9 110 -32 129
-34 28 -105 24 -136 -7 -14 -14 -29 -25 -34 -25 -6 0 -10 11 -10 25 0 21 -5
25 -30 25 l-30 0 0 -260z"/>
<path d="M4151 2077 c-13 -6 -34 -25 -45 -40 -19 -26 -21 -41 -21 -205 1 -199
8 -228 67 -253 48 -20 169 -17 203 5 46 30 55 70 55 238 0 181 -9 221 -53 248
-38 23 -166 28 -206 7z m179 -63 c12 -12 15 -47 15 -185 0 -170 -1 -171 -25
-191 -20 -16 -36 -19 -83 -16 -31 2 -63 10 -70 17 -8 8 -13 62 -15 174 -3 181
4 208 53 218 41 9 107 -1 125 -17z"/>
<path d="M4260 1275 c0 -98 1 -105 20 -105 17 0 20 7 20 49 0 62 28 104 55 81
14 -12 16 -24 12 -65 -4 -27 -9 -60 -13 -72 -11 -38 14 -26 36 17 46 91 11
162 -67 136 -21 -7 -23 -4 -23 28 0 29 -4 36 -20 36 -19 0 -20 -7 -20 -105z"/>
<path d="M2400 1312 c-30 -15 -35 -22 -38 -58 -3 -35 1 -45 24 -63 70 -55 160
10 128 94 -6 15 -53 45 -71 45 -4 0 -24 -8 -43 -18z"/>
<path d="M3635 1323 c-36 -9 -55 -34 -55 -74 0 -69 69 -103 121 -59 13 10 19
19 12 20 -6 0 -15 -4 -18 -10 -9 -14 -48 -13 -63 2 -19 19 -14 27 16 26 80 -2
113 60 46 91 -26 12 -27 12 -59 4z"/>
<path d="M3803 1323 c-52 -10 -71 -93 -30 -131 17 -16 34 -20 80 -20 l57 1 0
73 c0 71 -9 91 -28 59 -7 -14 -11 -13 -27 5 -10 11 -21 19 -24 19 -3 -1 -16
-4 -28 -6z"/>
</g>
</svg>
