<svg xmlns="http://www.w3.org/2000/svg" xmlns:xlink="http://www.w3.org/1999/xlink" version="1.1" width="1000" height="1000" viewBox="0 0 1000 1000" xml:space="preserve">
<desc>Created with Fabric.js 3.5.0</desc>
<defs>
</defs>
<rect x="0" y="0" width="100%" height="100%" fill="#ffffff"/>
<g transform="matrix(0.2226 0 0 0.2226 116.0488 334.5377)" id="163029">
<g style="" vector-effect="non-scaling-stroke">
		<g transform="matrix(0.1333 0 0 -0.1333 260.2944 17.3094)">
<path style="stroke: none; stroke-width: 1; stroke-dasharray: none; stroke-linecap: butt; stroke-dashoffset: 0; stroke-linejoin: miter; stroke-miterlimit: 4; is-custom-font: none; font-file-url: none; fill: rgb(0,0,0); fill-rule: nonzero; opacity: 1;" transform=" translate(-5862.5, -1555)" d="M 5848 2193 l -3 -78 l -45 -3 c -44 -2 -155 -18 -196 -28 c -15 -4 -23 2 -32 20 c -6 14 -23 44 -37 66 c -22 34 -29 39 -41 29 c -15 -12 -12 -18 43 -106 c 14 -20 12 -22 -43 -38 c -31 -9 -98 -34 -148 -56 c -50 -22 -96 -43 -103 -45 c -6 -3 -31 21 -55 54 c -24 32 -49 57 -55 55 c -21 -7 -15 -23 27 -79 l 39 -52 l -47 -27 c -26 -15 -75 -46 -110 -68 l -63 -40 l -42 48 c -35 40 -44 45 -54 33 c -10 -11 -4 -23 27 -59 l 38 -45 l -66 -52 c -37 -28 -94 -76 -127 -106 l -60 -54 l 45 -47 c 25 -25 80 -74 123 -107 c 42 -34 77 -66 77 -71 c 0 -5 -16 -27 -35 -49 c -35 -38 -38 -58 -10 -58 c 7 0 29 19 49 43 l 35 42 l 28 -18 c 15 -10 63 -38 106 -64 c 71 -42 90 -64 69 -77 c -5 -3 -21 -23 -37 -45 c -23 -34 -25 -43 -15 -56 c 11 -13 19 -7 56 45 c 25 33 46 60 48 60 c 2 0 33 -13 68 -29 c 53 -24 112 -45 235 -86 c 9 -3 2 -23 -22 -61 c -19 -32 -32 -61 -29 -66 c 13 -20 33 -4 65 53 c 33 59 35 60 69 55 c 19 -4 79 -11 133 -17 l 97 -12 l 0 -78 c 0 -72 2 -79 20 -79 c 18 0 20 7 20 79 l 0 78 l 98 12 c 53 7 111 14 128 17 c 30 6 34 3 71 -59 c 30 -51 42 -64 53 -56 c 13 7 10 19 -18 70 c -19 33 -32 62 -30 63 c 1 1 30 10 63 20 c 33 10 101 36 150 57 c 50 22 93 39 96 39 c 3 0 23 -25 45 -55 c 37 -52 56 -65 68 -46 c 3 4 -13 34 -35 65 c -23 32 -39 59 -38 60 c 25 20 204 126 213 125 c 6 0 27 -20 48 -44 c 30 -37 38 -42 48 -30 c 10 12 5 23 -24 57 c -20 23 -36 44 -36 48 c 0 3 21 22 48 41 c 83 63 192 162 192 175 c 0 13 -134 134 -202 183 c -21 14 -38 29 -38 32 c 0 3 16 24 36 47 c 30 36 34 45 23 58 c -10 13 -18 8 -54 -32 l -41 -47 l -98 61 c -53 33 -102 62 -109 65 c -7 2 2 22 24 53 c 50 70 50 71 35 83 c -11 9 -21 1 -52 -41 c -20 -29 -40 -56 -44 -61 c -3 -4 -46 10 -96 32 c -49 21 -116 47 -149 57 c -33 10 -64 21 -68 25 c -5 3 5 29 22 56 c 34 56 37 68 18 76 c -9 3 -27 -18 -51 -59 c -21 -35 -39 -64 -39 -64 c -1 0 -37 7 -80 15 c -43 8 -101 15 -128 15 l -49 0 l 0 80 c 0 73 -2 80 -20 80 c -17 0 -19 -8 -22 -77 z m 120 -188 c 188 -44 320 -187 354 -383 c 23 -135 -22 -277 -120 -379 c -62 -64 -113 -97 -197 -124 c -294 -95 -593 121 -597 432 c -4 297 272 522 560 454 z m 589 -383 l 36 -19 l -40 -16 c -27 -11 -44 -25 -53 -46 c -16 -40 -26 -39 -39 2 c -8 23 -23 39 -49 52 l -37 18 l 41 17 c 33 15 45 26 55 57 l 12 38 l 19 -42 c 13 -29 30 -49 55 -61 z m -1288 49 c 8 -19 25 -34 49 -43 l 37 -14 l -33 -18 c -20 -10 -39 -31 -48 -52 c -8 -19 -18 -34 -22 -34 c -5 0 -16 15 -25 34 c -11 24 -27 38 -53 46 l -38 13 l 38 19 c 24 12 43 32 52 54 c 16 39 26 38 43 -5 z m -229 -61 c 8 -19 24 -34 46 -42 c 42 -15 43 -22 3 -38 c -21 -9 -37 -26 -49 -54 l -17 -41 l -18 37 c -13 27 -30 42 -59 54 l -41 16 l 37 19 c 25 13 43 32 53 55 c 16 40 27 38 45 -6 z m 1699 5 c 8 -24 24 -41 49 -54 l 37 -19 l -37 -15 c -24 -10 -44 -28 -57 -54 l -20 -38 l -16 41 c -12 30 -27 46 -53 58 l -36 17 l 40 18 c 27 12 45 29 53 50 c 17 40 24 39 40 -4 z m -1461 -194 c 23 -8 42 -18 42 -22 c 0 -3 -18 -14 -41 -24 c -33 -15 -46 -29 -64 -70 l -22 -50 l -24 47 c -18 39 -31 51 -66 64 c -24 9 -43 20 -43 23 c 0 4 20 17 45 29 c 25 12 45 26 45 31 c 0 5 7 26 16 47 l 16 38 l 26 -49 c 22 -39 36 -52 70 -64 z m 1296 56 c 13 -35 25 -48 56 -62 c 22 -10 40 -21 40 -25 c 0 -4 -19 -15 -43 -24 c -35 -13 -47 -25 -66 -64 l -23 -47 l -20 51 c -17 43 -26 54 -66 73 l -47 23 l 45 18 c 36 13 50 26 70 63 c 13 25 27 44 31 42 c 3 -3 14 -24 23 -48 z" stroke-linecap="round"/>
</g>
		<g transform="matrix(0.1333 0 0 -0.1333 246.9559 -25.3699)">
<path style="stroke: none; stroke-width: 1; stroke-dasharray: none; stroke-linecap: butt; stroke-dashoffset: 0; stroke-linejoin: miter; stroke-miterlimit: 4; is-custom-font: none; font-file-url: none; fill: rgb(0,0,0); fill-rule: nonzero; opacity: 1;" transform=" translate(-5762.1915, -1875.25)" d="M 5810 1972 c -14 -1 -46 -10 -71 -18 l -47 -15 l -10 -72 c -6 -39 -9 -73 -7 -75 c 2 -2 42 -7 89 -9 l 86 -6 l 0 96 c 0 53 -3 97 -7 99 c -5 2 -19 2 -33 0 z" stroke-linecap="round"/>
</g>
		<g transform="matrix(0.1333 0 0 -0.1333 275.1977 -25.7368)">
<path style="stroke: none; stroke-width: 1; stroke-dasharray: none; stroke-linecap: butt; stroke-dashoffset: 0; stroke-linejoin: miter; stroke-miterlimit: 4; is-custom-font: none; font-file-url: none; fill: rgb(0,0,0); fill-rule: nonzero; opacity: 1;" transform=" translate(-5974.0039, -1878)" d="M 5890 1878 l 0 -101 l 81 6 c 44 3 83 8 86 11 c 3 3 -1 38 -8 77 c -13 69 -15 73 -49 84 c -19 7 -52 15 -72 18 l -38 6 l 0 -101 z" stroke-linecap="round"/>
</g>
		<g transform="matrix(0.1333 0 0 -0.1333 217.0518 1.9204)">
<path style="stroke: none; stroke-width: 1; stroke-dasharray: none; stroke-linecap: butt; stroke-dashoffset: 0; stroke-linejoin: miter; stroke-miterlimit: 4; is-custom-font: none; font-file-url: none; fill: rgb(0,0,0); fill-rule: nonzero; opacity: 1;" transform=" translate(-5537.9096, -1670.5717)" d="M 5480 1718 c -13 -29 -23 -68 -24 -87 c -1 -35 -1 -35 59 -47 c 110 -24 105 -27 105 76 c 0 99 3 95 -71 105 l -46 6 l -23 -53 z" stroke-linecap="round"/>
</g>
		<g transform="matrix(0.1333 0 0 -0.1333 304.3906 2.1294)">
<path style="stroke: none; stroke-width: 1; stroke-dasharray: none; stroke-linecap: butt; stroke-dashoffset: 0; stroke-linejoin: miter; stroke-miterlimit: 4; is-custom-font: none; font-file-url: none; fill: rgb(0,0,0); fill-rule: nonzero; opacity: 1;" transform=" translate(-6192.9495, -1669.0045)" d="M 6163 1761 c -24 -4 -45 -10 -48 -13 c -4 -3 -3 -45 1 -92 l 7 -87 l 41 6 c 111 17 111 17 109 63 c -2 50 -37 132 -55 131 c -7 -1 -32 -5 -55 -8 z" stroke-linecap="round"/>
</g>
		<g transform="matrix(0.1333 0 0 -0.1333 245.9968 4.829)">
<path style="stroke: none; stroke-width: 1; stroke-dasharray: none; stroke-linecap: butt; stroke-dashoffset: 0; stroke-linejoin: miter; stroke-miterlimit: 4; is-custom-font: none; font-file-url: none; fill: rgb(0,0,0); fill-rule: nonzero; opacity: 1;" transform=" translate(-5755, -1648.758)" d="M 5666 1735 c -3 -9 -6 -52 -6 -94 l 0 -78 l 68 -6 c 37 -4 79 -7 95 -7 l 27 0 l 0 95 l 0 95 l -67 0 c -38 0 -78 3 -89 6 c -14 4 -23 0 -28 -11 z" stroke-linecap="round"/>
</g>
		<g transform="matrix(0.1333 0 0 -0.1333 276.3293 4.9288)">
<path style="stroke: none; stroke-width: 1; stroke-dasharray: none; stroke-linecap: butt; stroke-dashoffset: 0; stroke-linejoin: miter; stroke-miterlimit: 4; is-custom-font: none; font-file-url: none; fill: rgb(0,0,0); fill-rule: nonzero; opacity: 1;" transform=" translate(-5982.4929, -1648.0088)" d="M 5968 1743 l -78 -4 l 0 -95 l 0 -96 l 88 7 c 48 4 90 10 93 14 c 11 12 -3 181 -15 179 c -6 -1 -46 -4 -88 -5 z" stroke-linecap="round"/>
</g>
		<g transform="matrix(0.1333 0 0 -0.1333 216.9175 32.112)">
<path style="stroke: none; stroke-width: 1; stroke-dasharray: none; stroke-linecap: butt; stroke-dashoffset: 0; stroke-linejoin: miter; stroke-miterlimit: 4; is-custom-font: none; font-file-url: none; fill: rgb(0,0,0); fill-rule: nonzero; opacity: 1;" transform=" translate(-5536.9025, -1444.1339)" d="M 5450 1517 c 0 -34 23 -122 38 -145 c 8 -11 130 -39 135 -31 c 2 2 0 44 -3 94 l -5 90 l -65 12 c -98 18 -100 18 -100 -20 z" stroke-linecap="round"/>
</g>
		<g transform="matrix(0.1333 0 0 -0.1333 305.2151 32.1695)">
<path style="stroke: none; stroke-width: 1; stroke-dasharray: none; stroke-linecap: butt; stroke-dashoffset: 0; stroke-linejoin: miter; stroke-miterlimit: 4; is-custom-font: none; font-file-url: none; fill: rgb(0,0,0); fill-rule: nonzero; opacity: 1;" transform=" translate(-6199.1351, -1443.7026)" d="M 6184 1537 l -62 -9 l -6 -52 c -3 -28 -6 -70 -6 -94 l 0 -43 l 48 7 c 26 4 56 10 67 14 c 22 8 49 75 60 148 c 8 48 10 47 -101 29 z" stroke-linecap="round"/>
</g>
		<g transform="matrix(0.1333 0 0 -0.1333 245.9968 34.4634)">
<path style="stroke: none; stroke-width: 1; stroke-dasharray: none; stroke-linecap: butt; stroke-dashoffset: 0; stroke-linejoin: miter; stroke-miterlimit: 4; is-custom-font: none; font-file-url: none; fill: rgb(0,0,0); fill-rule: nonzero; opacity: 1;" transform=" translate(-5755, -1426.5)" d="M 5660 1464 c 0 -32 3 -76 6 -96 l 7 -38 l 88 0 l 89 0 l 0 90 l 0 90 l -34 0 c -18 0 -61 3 -95 6 l -61 7 l 0 -59 z" stroke-linecap="round"/>
</g>
		<g transform="matrix(0.1333 0 0 -0.1333 276.3302 34.6634)">
<path style="stroke: none; stroke-width: 1; stroke-dasharray: none; stroke-linecap: butt; stroke-dashoffset: 0; stroke-linejoin: miter; stroke-miterlimit: 4; is-custom-font: none; font-file-url: none; fill: rgb(0,0,0); fill-rule: nonzero; opacity: 1;" transform=" translate(-5982.5, -1425)" d="M 5953 1513 l -63 -4 l 0 -89 l 0 -90 l 85 0 c 60 0 87 4 90 13 c 2 6 5 49 7 95 l 3 82 l -30 -2 c -16 -1 -58 -3 -92 -5 z" stroke-linecap="round"/>
</g>
		<g transform="matrix(0.1333 0 0 -0.1333 247.3847 62.6641)">
<path style="stroke: none; stroke-width: 1; stroke-dasharray: none; stroke-linecap: butt; stroke-dashoffset: 0; stroke-linejoin: miter; stroke-miterlimit: 4; is-custom-font: none; font-file-url: none; fill: rgb(0,0,0); fill-rule: nonzero; opacity: 1;" transform=" translate(-5765.4067, -1215)" d="M 5681 1258 c 2 -67 12 -82 64 -100 c 28 -9 62 -17 78 -18 c 27 0 27 0 27 69 l 0 68 l -52 7 c -29 3 -68 6 -85 6 c -31 0 -33 -2 -32 -32 z" stroke-linecap="round"/>
</g>
		<g transform="matrix(0.1333 0 0 -0.1333 275.1557 62.7543)">
<path style="stroke: none; stroke-width: 1; stroke-dasharray: none; stroke-linecap: butt; stroke-dashoffset: 0; stroke-linejoin: miter; stroke-miterlimit: 4; is-custom-font: none; font-file-url: none; fill: rgb(0,0,0); fill-rule: nonzero; opacity: 1;" transform=" translate(-5973.6889, -1214.3241)" d="M 5923 1283 l -33 -4 l 0 -70 c 0 -66 1 -69 23 -69 c 13 0 46 7 74 15 c 49 15 52 17 58 58 c 3 23 9 50 11 60 c 5 15 -2 17 -48 15 c -29 0 -68 -3 -85 -5 z" stroke-linecap="round"/>
</g>
		<g transform="matrix(0.1333 0 0 -0.1333 -399.8892 -13.8794)">
<path style="stroke: none; stroke-width: 1; stroke-dasharray: none; stroke-linecap: butt; stroke-dashoffset: 0; stroke-linejoin: miter; stroke-miterlimit: 4; is-custom-font: none; font-file-url: none; fill: rgb(0,0,0); fill-rule: nonzero; opacity: 1;" transform=" translate(-910.8791, -1789)" d="M 720 1789 l 0 -381 l 143 4 c 158 4 195 15 222 68 c 23 44 22 577 -1 621 c -27 53 -79 69 -231 69 l -133 0 l 0 -381 z m 296 287 c 11 -16 14 -72 14 -283 l 0 -264 l -25 -24 c -22 -23 -32 -25 -115 -25 l -90 0 l 0 311 l 0 311 l 101 -4 c 86 -2 103 -6 115 -22 z" stroke-linecap="round"/>
</g>
		<g transform="matrix(0.1333 0 0 -0.1333 15.9986 -14.0127)">
<path style="stroke: none; stroke-width: 1; stroke-dasharray: none; stroke-linecap: butt; stroke-dashoffset: 0; stroke-linejoin: miter; stroke-miterlimit: 4; is-custom-font: none; font-file-url: none; fill: rgb(0,0,0); fill-rule: nonzero; opacity: 1;" transform=" translate(-4030, -1790)" d="M 3990 1790 l 0 -380 l 40 0 l 40 0 l 0 380 l 0 380 l -40 0 l -40 0 l 0 -380 z" stroke-linecap="round"/>
</g>
		<g transform="matrix(0.1333 0 0 -0.1333 -355.3346 1.9914)">
<path style="stroke: none; stroke-width: 1; stroke-dasharray: none; stroke-linecap: butt; stroke-dashoffset: 0; stroke-linejoin: miter; stroke-miterlimit: 4; is-custom-font: none; font-file-url: none; fill: rgb(0,0,0); fill-rule: nonzero; opacity: 1;" transform=" translate(-1245, -1670)" d="M 1210 1670 l 0 -260 l 35 0 l 35 0 l 0 260 l 0 260 l -35 0 l -35 0 l 0 -260 z" stroke-linecap="round"/>
</g>
		<g transform="matrix(0.1333 0 0 -0.1333 -315.8054 2.4835)">
<path style="stroke: none; stroke-width: 1; stroke-dasharray: none; stroke-linecap: butt; stroke-dashoffset: 0; stroke-linejoin: miter; stroke-miterlimit: 4; is-custom-font: none; font-file-url: none; fill: rgb(0,0,0); fill-rule: nonzero; opacity: 1;" transform=" translate(-1541.5, -1666.3085)" d="M 1443 1920 c -32 -13 -53 -51 -60 -107 c -12 -105 25 -148 152 -176 c 80 -18 105 -41 105 -94 c 0 -23 -8 -42 -26 -60 c -23 -23 -31 -25 -85 -21 c -33 2 -64 9 -71 16 c -6 6 -13 34 -16 61 c -4 48 -6 51 -33 51 c -28 0 -29 -2 -29 -44 c 0 -104 40 -140 155 -141 c 83 0 131 18 150 56 c 18 34 19 135 2 168 c -16 31 -68 58 -142 72 c -81 16 -95 30 -95 94 c 0 66 13 77 90 77 c 76 0 90 -11 90 -73 l 0 -49 l 36 0 l 37 0 l -6 61 c -4 49 -11 67 -31 88 c -24 24 -35 26 -114 28 c -48 2 -97 -1 -109 -7 z" stroke-linecap="round"/>
</g>
		<g transform="matrix(0.1333 0 0 -0.1333 -262.3897 2.6089)">
<path style="stroke: none; stroke-width: 1; stroke-dasharray: none; stroke-linecap: butt; stroke-dashoffset: 0; stroke-linejoin: miter; stroke-miterlimit: 4; is-custom-font: none; font-file-url: none; fill: rgb(0,0,0); fill-rule: nonzero; opacity: 1;" transform=" translate(-1942.1177, -1665.3677)" d="M 1842 1915 c -56 -24 -64 -61 -60 -267 l 3 -180 l 32 -28 c 40 -36 107 -47 183 -32 c 69 15 92 38 99 99 c 9 70 5 83 -30 83 c -28 0 -29 -2 -29 -45 c 0 -67 -25 -88 -100 -83 c -91 7 -90 4 -90 202 c 0 210 -1 208 95 208 c 81 -1 95 -12 95 -79 c 0 -41 1 -43 30 -43 c 30 0 30 0 30 56 c 0 66 -10 89 -50 109 c -37 19 -163 19 -208 0 z" stroke-linecap="round"/>
</g>
		<g transform="matrix(0.1333 0 0 -0.1333 -208.4844 2.295)">
<path style="stroke: none; stroke-width: 1; stroke-dasharray: none; stroke-linecap: butt; stroke-dashoffset: 0; stroke-linejoin: miter; stroke-miterlimit: 4; is-custom-font: none; font-file-url: none; fill: rgb(0,0,0); fill-rule: nonzero; opacity: 1;" transform=" translate(-2346.4077, -1667.7218)" d="M 2255 1921 c -42 -17 -57 -48 -67 -133 c -12 -102 -2 -282 18 -325 c 20 -42 63 -58 150 -57 c 136 1 154 32 154 264 c 0 181 -9 219 -59 244 c -32 17 -160 21 -196 7 z m 175 -68 c 12 -11 15 -46 15 -184 c 0 -167 0 -171 -24 -190 c -26 -22 -95 -26 -135 -8 c -31 15 -36 41 -36 208 c 0 153 9 182 55 192 c 41 9 107 -1 125 -18 z" stroke-linecap="round"/>
</g>
		<g transform="matrix(0.1333 0 0 -0.1333 -154.7529 1.9688)">
<path style="stroke: none; stroke-width: 1; stroke-dasharray: none; stroke-linecap: butt; stroke-dashoffset: 0; stroke-linejoin: miter; stroke-miterlimit: 4; is-custom-font: none; font-file-url: none; fill: rgb(0,0,0); fill-rule: nonzero; opacity: 1;" transform=" translate(-2749.3959, -1670.1692)" d="M 2580 1913 c 0 -10 20 -124 45 -253 c 25 -129 45 -238 45 -242 c 0 -5 33 -8 73 -8 l 72 0 l 49 238 c 26 130 50 247 53 260 c 5 20 1 22 -31 22 c -41 0 -35 17 -71 -190 c -47 -273 -46 -270 -71 -270 c -16 0 -24 7 -28 28 c -18 90 -39 212 -54 312 l -18 115 l -32 3 c -26 3 -32 0 -32 -15 z" stroke-linecap="round"/>
</g>
		<g transform="matrix(0.1333 0 0 -0.1333 -102.093 2.5774)">
<path style="stroke: none; stroke-width: 1; stroke-dasharray: none; stroke-linecap: butt; stroke-dashoffset: 0; stroke-linejoin: miter; stroke-miterlimit: 4; is-custom-font: none; font-file-url: none; fill: rgb(0,0,0); fill-rule: nonzero; opacity: 1;" transform=" translate(-3144.3433, -1665.6032)" d="M 3042 1915 c -56 -24 -64 -60 -60 -267 l 3 -180 l 31 -28 c 38 -33 94 -45 170 -35 c 72 9 103 36 115 100 c 12 65 5 85 -32 85 c -28 0 -29 -2 -29 -45 c 0 -67 -25 -88 -100 -83 c -83 6 -90 15 -90 109 l 0 79 l 124 0 l 124 0 l 7 50 c 7 51 -1 137 -16 177 c -4 12 -22 29 -38 38 c -38 19 -164 20 -209 0 z m 150 -45 c 34 0 48 -29 48 -96 l 0 -64 l -95 0 l -95 0 l 0 63 c 0 35 6 70 13 79 c 13 17 58 28 92 22 c 11 -2 28 -4 37 -4 z" stroke-linecap="round"/>
</g>
		<g transform="matrix(0.1333 0 0 -0.1333 -49.8039 1.9369)">
<path style="stroke: none; stroke-width: 1; stroke-dasharray: none; stroke-linecap: butt; stroke-dashoffset: 0; stroke-linejoin: miter; stroke-miterlimit: 4; is-custom-font: none; font-file-url: none; fill: rgb(0,0,0); fill-rule: nonzero; opacity: 1;" transform=" translate(-3536.5054, -1670.4084)" d="M 3400 1670 l 0 -260 l 30 0 l 30 0 l 0 208 l 0 209 l 25 23 c 32 30 91 33 111 5 c 8 -10 14 -38 14 -62 c 0 -41 1 -43 29 -43 c 26 0 30 4 33 33 c 5 54 -9 110 -32 129 c -34 28 -105 24 -136 -7 c -14 -14 -29 -25 -34 -25 c -6 0 -10 11 -10 25 c 0 21 -5 25 -30 25 l -30 0 l 0 -260 z" stroke-linecap="round"/>
</g>
		<g transform="matrix(0.1333 0 0 -0.1333 58.3279 2.2638)">
<path style="stroke: none; stroke-width: 1; stroke-dasharray: none; stroke-linecap: butt; stroke-dashoffset: 0; stroke-linejoin: miter; stroke-miterlimit: 4; is-custom-font: none; font-file-url: none; fill: rgb(0,0,0); fill-rule: nonzero; opacity: 1;" transform=" translate(-4347.5, -1667.956)" d="M 4251 1917 c -13 -6 -34 -25 -45 -40 c -19 -26 -21 -41 -21 -205 c 1 -199 8 -228 67 -253 c 48 -20 169 -17 203 5 c 46 30 55 70 55 238 c 0 181 -9 221 -53 248 c -38 23 -166 28 -206 7 z m 179 -63 c 12 -12 15 -47 15 -185 c 0 -170 -1 -171 -25 -191 c -20 -16 -36 -19 -83 -16 c -31 2 -63 10 -70 17 c -8 8 -13 62 -15 174 c -3 181 4 208 53 218 c 41 9 107 -1 125 -17 z" stroke-linecap="round"/>
</g>
		<g transform="matrix(0.1333 0 0 -0.1333 70.035 77.985)">
<path style="stroke: none; stroke-width: 1; stroke-dasharray: none; stroke-linecap: butt; stroke-dashoffset: 0; stroke-linejoin: miter; stroke-miterlimit: 4; is-custom-font: none; font-file-url: none; fill: rgb(0,0,0); fill-rule: nonzero; opacity: 1;" transform=" translate(-4435.2816, -1100.0824)" d="M 4360 1115 c 0 -98 1 -105 20 -105 c 17 0 20 7 20 49 c 0 62 28 104 55 81 c 14 -12 16 -24 12 -65 c -4 -27 -9 -60 -13 -72 c -11 -38 14 -26 36 17 c 46 91 11 162 -67 136 c -21 -7 -23 -4 -23 28 c 0 29 -4 36 -20 36 c -19 0 -20 -7 -20 -105 z" stroke-linecap="round"/>
</g>
		<g transform="matrix(0.1333 0 0 -0.1333 -182.5501 79.2868)">
<path style="stroke: none; stroke-width: 1; stroke-dasharray: none; stroke-linecap: butt; stroke-dashoffset: 0; stroke-linejoin: miter; stroke-miterlimit: 4; is-custom-font: none; font-file-url: none; fill: rgb(0,0,0); fill-rule: nonzero; opacity: 1;" transform=" translate(-2540.8943, -1090.3291)" d="M 2500 1152 c -30 -15 -35 -22 -38 -58 c -3 -35 1 -45 24 -63 c 70 -55 160 10 128 94 c -6 15 -53 45 -71 45 c -4 0 -24 -8 -43 -18 z" stroke-linecap="round"/>
</g>
		<g transform="matrix(0.1333 0 0 -0.1333 -20.6701 79.4066)">
<path style="stroke: none; stroke-width: 1; stroke-dasharray: none; stroke-linecap: butt; stroke-dashoffset: 0; stroke-linejoin: miter; stroke-miterlimit: 4; is-custom-font: none; font-file-url: none; fill: rgb(0,0,0); fill-rule: nonzero; opacity: 1;" transform=" translate(-3754.9926, -1089.4306)" d="M 3735 1163 c -36 -9 -55 -34 -55 -74 c 0 -69 69 -103 121 -59 c 13 10 19 19 12 20 c -6 0 -15 -4 -18 -10 c -9 -14 -48 -13 -63 2 c -19 19 -14 27 16 26 c 80 -2 113 60 46 91 c -26 12 -27 12 -59 4 z" stroke-linecap="round"/>
</g>
		<g transform="matrix(0.1333 0 0 -0.1333 2.7149 79.264)">
<path style="stroke: none; stroke-width: 1; stroke-dasharray: none; stroke-linecap: butt; stroke-dashoffset: 0; stroke-linejoin: miter; stroke-miterlimit: 4; is-custom-font: none; font-file-url: none; fill: rgb(0,0,0); fill-rule: nonzero; opacity: 1;" transform=" translate(-3930.3815, -1090.5)" d="M 3903 1163 c -52 -10 -71 -93 -30 -131 c 17 -16 34 -20 80 -20 l 57 1 l 0 73 c 0 71 -9 91 -28 59 c -7 -14 -11 -13 -27 5 c -10 11 -21 19 -24 19 c -3 -1 -16 -4 -28 -6 z" stroke-linecap="round"/>
</g>
</g>
</g>
</svg>